<?xml version="1.0" encoding="utf-8"?>
<svg version="1.1"
	 id="Livello_1" xmlns:cc="http://creativecommons.org/ns#" xmlns:dc="http://purl.org/dc/elements/1.1/" xmlns:rdf="http://www.w3.org/1999/02/22-rdf-syntax-ns#"
	 xmlns="http://www.w3.org/2000/svg" xmlns:xlink="http://www.w3.org/1999/xlink" x="0px" y="0px" viewBox="0 0 740 280"
	 style="enable-background:new 0 0 740 280;" xml:space="preserve">
<style type="text/css">
	.st0{fill:#FF6635;}
	.st1{fill:#357EC0;}
	.st2{fill:#C8C8C8;}
</style>
<g>
	<path class="st0" d="M174.4,89.6h-31.1c-0.8,0-1.7-0.1-2.6-0.3c-0.9-0.2-1.8-0.5-2.7-0.9s-1.8-0.9-2.6-1.5
		c-0.8-0.6-1.5-1.4-2.2-2.3s-1.1-1.9-1.5-3.1c-0.4-1.2-0.6-2.5-0.6-4V54.1c0-0.8,0.1-1.7,0.3-2.6c0.2-0.9,0.5-1.8,0.9-2.7
		s0.9-1.8,1.6-2.6c0.6-0.8,1.4-1.5,2.3-2.2s1.9-1.1,3.1-1.5c1.2-0.4,2.5-0.6,4-0.6h31.1v8.6h-31.1c-1.1,0-2,0.3-2.6,0.9
		s-0.9,1.5-0.9,2.7v23.3c0,1.1,0.3,2,0.9,2.6c0.6,0.6,1.5,0.9,2.6,0.9h31.1V89.6z"/>
	<path class="st0" d="M218.5,77.7c0,1.2-0.2,2.5-0.6,3.9c-0.4,1.4-1.1,2.7-2,3.9c-0.9,1.2-2.2,2.2-3.7,3c-1.5,0.8-3.4,1.2-5.5,1.2
		H191c-1.2,0-2.5-0.2-3.9-0.6c-1.4-0.4-2.7-1.1-3.9-2c-1.2-0.9-2.2-2.2-3-3.7c-0.8-1.5-1.2-3.4-1.2-5.5c0-1.2,0.2-2.5,0.6-3.9
		c0.4-1.4,1.1-2.7,2-3.9c0.9-1.2,2.2-2.2,3.7-3c1.5-0.8,3.4-1.2,5.5-1.2h15.6V74H191c-1.2,0-2.1,0.4-2.7,1.1c-0.6,0.7-1,1.6-1,2.7
		c0,1.1,0.4,2,1.1,2.6c0.7,0.6,1.6,0.9,2.6,0.9h15.5c1.2,0,2.1-0.4,2.7-1.1c0.6-0.7,1-1.6,1-2.7V65.6c0-1.1-0.3-2-1-2.7
		s-1.6-1-2.6-1h-19v-8.2h19c1.2,0,2.5,0.2,3.9,0.6c1.4,0.4,2.7,1.1,3.9,2c1.2,0.9,2.2,2.2,3,3.7c0.8,1.5,1.2,3.4,1.2,5.5V77.7z"/>
	<path class="st0" d="M257.3,62.3h-19.4c-1.2,0-2.1,0.3-2.7,0.9c-0.6,0.6-0.9,1.4-0.9,2.6v23.8h-8.6V65.8c0-1.5,0.2-2.8,0.6-4
		c0.4-1.2,0.9-2.2,1.5-3.1s1.4-1.7,2.2-2.3c0.8-0.6,1.7-1.1,2.6-1.5s1.8-0.7,2.7-0.9c0.9-0.2,1.8-0.3,2.6-0.3h19.5V62.3z"/>
	<path class="st0" d="M302.5,77.4c0,0.8-0.1,1.7-0.3,2.6c-0.2,0.9-0.5,1.8-0.9,2.7s-0.9,1.8-1.5,2.6c-0.6,0.8-1.4,1.5-2.3,2.2
		s-1.9,1.1-3.1,1.5c-1.2,0.4-2.5,0.6-4,0.6h-15.6c-0.8,0-1.7-0.1-2.6-0.3c-0.9-0.2-1.8-0.5-2.7-0.9s-1.8-0.9-2.6-1.5
		c-0.8-0.6-1.5-1.4-2.2-2.3s-1.1-1.9-1.5-3.1c-0.4-1.2-0.6-2.5-0.6-4V38.5h8.6v38.9c0,1.1,0.3,1.9,1,2.5s1.5,0.9,2.5,0.9h15.6
		c1.1,0,1.9-0.3,2.5-1c0.6-0.6,0.9-1.5,0.9-2.5V65.8c0-1.1-0.3-1.9-1-2.5c-0.6-0.6-1.5-0.9-2.5-0.9h-15.6v-8.6h15.6
		c0.8,0,1.7,0.1,2.6,0.3c0.9,0.2,1.8,0.5,2.7,0.9s1.8,0.9,2.6,1.5c0.8,0.6,1.5,1.4,2.2,2.3c0.6,0.9,1.1,1.9,1.5,3.1
		c0.4,1.2,0.6,2.5,0.6,4V77.4z"/>
	<path class="st0" d="M348.9,77.4c0,1.5-0.2,2.8-0.6,4c-0.4,1.2-0.9,2.2-1.5,3.1c-0.6,0.9-1.3,1.7-2.2,2.3c-0.8,0.6-1.7,1.1-2.6,1.5
		s-1.8,0.7-2.7,0.9c-0.9,0.2-1.8,0.3-2.6,0.3h-15.6c-1.2,0-2.5-0.2-3.9-0.6c-1.4-0.4-2.7-1.1-3.9-2.1c-1.2-1-2.2-2.2-3-3.8
		c-0.8-1.5-1.2-3.4-1.2-5.7V65.8c0-2.2,0.4-4.1,1.2-5.6c0.8-1.5,1.8-2.8,3-3.8c1.2-1,2.5-1.7,3.9-2.1c1.4-0.4,2.7-0.6,3.9-0.6h15.6
		c2.2,0,4.1,0.4,5.6,1.2c1.5,0.8,2.8,1.8,3.8,3c1,1.2,1.6,2.5,2.1,3.9c0.4,1.4,0.6,2.7,0.6,4V77.4z M340.3,65.8
		c0-1.2-0.3-2.1-0.9-2.7c-0.6-0.6-1.5-0.9-2.6-0.9h-15.5c-1.2,0-2,0.3-2.6,0.9c-0.6,0.6-0.9,1.4-0.9,2.6v11.7c0,1.1,0.3,2,0.9,2.6
		s1.5,0.9,2.6,0.9h15.5c1.2,0,2-0.3,2.6-0.9c0.6-0.6,0.9-1.5,0.9-2.6V65.8z"/>
	<path class="st0" d="M396.1,89.6h-8.6V69.6c0-1.1-0.2-2.1-0.6-3c-0.4-0.9-0.9-1.7-1.6-2.3c-0.7-0.6-1.4-1.1-2.3-1.5
		c-0.9-0.3-1.9-0.5-2.9-0.5h-15.1v27.3h-8.6V58c0-0.6,0.1-1.2,0.3-1.7c0.2-0.5,0.5-1,0.9-1.4c0.4-0.4,0.9-0.7,1.4-0.9
		c0.5-0.2,1.1-0.3,1.7-0.3h19.5c1.1,0,2.2,0.1,3.4,0.4c1.2,0.2,2.4,0.6,3.6,1.2c1.2,0.5,2.3,1.2,3.4,2.1c1.1,0.8,2,1.8,2.9,3
		c0.8,1.2,1.5,2.6,2,4.1c0.5,1.5,0.7,3.3,0.7,5.2V89.6z"/>
	<path class="st1" d="M469.3,89.6h-31.1c-0.8,0-1.7-0.1-2.6-0.3c-0.9-0.2-1.8-0.5-2.7-0.9s-1.8-0.9-2.6-1.5
		c-0.8-0.6-1.5-1.4-2.2-2.3s-1.1-1.9-1.5-3.1c-0.4-1.2-0.6-2.5-0.6-4V54.1c0-0.8,0.1-1.7,0.3-2.6c0.2-0.9,0.5-1.8,0.9-2.7
		s0.9-1.8,1.6-2.6c0.6-0.8,1.4-1.5,2.3-2.2s1.9-1.1,3.1-1.5c1.2-0.4,2.5-0.6,4-0.6h31.1v8.6h-31.1c-1.1,0-2,0.3-2.6,0.9
		s-0.9,1.5-0.9,2.7v23.3c0,1.1,0.3,2,0.9,2.6c0.6,0.6,1.5,0.9,2.6,0.9h31.1V89.6z"/>
	<path class="st1" d="M515.2,77.4c0,1.5-0.2,2.8-0.6,4c-0.4,1.2-0.9,2.2-1.5,3.1c-0.6,0.9-1.3,1.7-2.2,2.3c-0.8,0.6-1.7,1.1-2.6,1.5
		s-1.8,0.7-2.7,0.9c-0.9,0.2-1.8,0.3-2.6,0.3h-15.6c-1.2,0-2.5-0.2-3.9-0.6c-1.4-0.4-2.7-1.1-3.9-2.1c-1.2-1-2.2-2.2-3-3.8
		c-0.8-1.5-1.2-3.4-1.2-5.7V65.8c0-2.2,0.4-4.1,1.2-5.6c0.8-1.5,1.8-2.8,3-3.8c1.2-1,2.5-1.7,3.9-2.1c1.4-0.4,2.7-0.6,3.9-0.6H503
		c2.2,0,4.1,0.4,5.6,1.2c1.5,0.8,2.8,1.8,3.8,3c1,1.2,1.6,2.5,2.1,3.9c0.4,1.4,0.6,2.7,0.6,4V77.4z M506.5,65.8
		c0-1.2-0.3-2.1-0.9-2.7c-0.6-0.6-1.5-0.9-2.6-0.9h-15.5c-1.2,0-2,0.3-2.6,0.9c-0.6,0.6-0.9,1.4-0.9,2.6v11.7c0,1.1,0.3,2,0.9,2.6
		s1.5,0.9,2.6,0.9H503c1.2,0,2-0.3,2.6-0.9c0.6-0.6,0.9-1.5,0.9-2.6V65.8z"/>
	<path class="st1" d="M562.1,77.4c0,1.5-0.2,2.8-0.6,4c-0.4,1.2-0.9,2.2-1.5,3.1c-0.6,0.9-1.3,1.7-2.2,2.3c-0.8,0.6-1.7,1.1-2.6,1.5
		s-1.8,0.7-2.7,0.9c-0.9,0.2-1.8,0.3-2.6,0.3h-15.6v-8.6H550c1.2,0,2-0.3,2.6-0.9c0.6-0.6,0.9-1.5,0.9-2.6V65.8
		c0-1.2-0.3-2.1-0.9-2.7c-0.6-0.6-1.4-0.9-2.6-0.9h-15.5c-1.2,0-2.1,0.3-2.7,0.9c-0.6,0.6-0.9,1.4-0.9,2.6v35h-8.6v-35
		c0-1.5,0.2-2.8,0.6-4c0.4-1.2,0.9-2.2,1.5-3.1s1.4-1.7,2.2-2.3c0.8-0.6,1.7-1.1,2.6-1.5s1.8-0.7,2.7-0.9c0.9-0.2,1.8-0.3,2.6-0.3
		H550c1.5,0,2.8,0.2,4,0.6c1.2,0.4,2.2,0.9,3.1,1.5c0.9,0.6,1.7,1.3,2.3,2.2c0.6,0.8,1.1,1.7,1.5,2.6s0.7,1.8,0.9,2.7
		c0.2,0.9,0.3,1.8,0.3,2.6V77.4z"/>
	<path class="st1" d="M596.9,89.6h-15.6c-1.2,0-2.6-0.2-4-0.6c-1.4-0.4-2.7-1.1-3.9-2.1c-1.2-1-2.2-2.2-3-3.8
		c-0.8-1.5-1.2-3.4-1.2-5.7V53.7h8.6v23.8c0,1.1,0.3,2,0.9,2.6s1.5,0.9,2.7,0.9h15.5V89.6z M609,93c0,1.5-0.2,2.8-0.6,4
		c-0.4,1.2-0.9,2.2-1.5,3.1c-0.6,0.9-1.3,1.7-2.2,2.3c-0.8,0.6-1.7,1.1-2.6,1.5s-1.8,0.7-2.7,0.9c-0.9,0.2-1.8,0.3-2.6,0.3h-15.6
		v-8.6h15.6c1.2,0,2-0.3,2.6-0.9c0.6-0.6,0.9-1.5,0.9-2.6V53.7h8.6V93z"/>
</g>
<g>
	<path class="st2" d="M60.2,130.5c0-1.3,0.2-2.5,0.6-3.6c0.4-1.1,0.9-2,1.6-2.7s1.5-1.3,2.4-1.7c0.9-0.4,1.9-0.6,2.9-0.6
		c1,0,1.9,0.2,2.7,0.6s1.4,0.9,2,1.4l-1.6,1.8c-0.4-0.4-0.9-0.7-1.3-1c-0.5-0.2-1-0.4-1.7-0.4c-0.7,0-1.3,0.1-1.9,0.4
		c-0.6,0.3-1,0.7-1.5,1.2c-0.4,0.5-0.7,1.1-0.9,1.9s-0.3,1.6-0.3,2.5c0,1.9,0.4,3.3,1.2,4.4c0.8,1.1,1.9,1.6,3.3,1.6
		c0.7,0,1.4-0.1,1.9-0.4c0.5-0.3,1-0.7,1.5-1.2l1.6,1.8c-0.7,0.8-1.4,1.4-2.3,1.8s-1.8,0.6-2.8,0.6c-1,0-2-0.2-2.9-0.5
		s-1.7-0.9-2.4-1.6c-0.7-0.7-1.2-1.6-1.6-2.6C60.4,133.1,60.2,131.9,60.2,130.5z"/>
	<path class="st2" d="M73.6,132.5c0-1,0.2-1.9,0.5-2.7c0.3-0.8,0.7-1.5,1.3-2c0.5-0.5,1.2-1,1.9-1.3c0.7-0.3,1.4-0.4,2.2-0.4
		c0.8,0,1.5,0.1,2.2,0.4c0.7,0.3,1.3,0.7,1.9,1.3s1,1.2,1.3,2c0.3,0.8,0.5,1.7,0.5,2.7s-0.2,1.9-0.5,2.7c-0.3,0.8-0.8,1.5-1.3,2
		s-1.2,1-1.9,1.2c-0.7,0.3-1.4,0.4-2.2,0.4c-0.8,0-1.5-0.1-2.2-0.4c-0.7-0.3-1.3-0.7-1.9-1.2c-0.5-0.5-1-1.2-1.3-2
		C73.8,134.4,73.6,133.5,73.6,132.5z M76.6,132.5c0,1.2,0.3,2.2,0.8,3c0.5,0.7,1.2,1.1,2.1,1.1s1.6-0.4,2.1-1.1
		c0.5-0.7,0.8-1.7,0.8-3c0-1.2-0.3-2.2-0.8-3c-0.5-0.7-1.2-1.1-2.1-1.1s-1.6,0.4-2.1,1.1S76.6,131.3,76.6,132.5z"/>
	<path class="st2" d="M90.3,139.6v3.9h-2.9v-17.1h2.4l0.2,1.3h0.1c0.5-0.4,1.1-0.8,1.7-1.1c0.6-0.3,1.3-0.5,2-0.5
		c0.8,0,1.4,0.1,2,0.4c0.6,0.3,1.1,0.7,1.5,1.3c0.4,0.5,0.7,1.2,1,2c0.2,0.8,0.3,1.6,0.3,2.6c0,1.1-0.1,2-0.4,2.8
		c-0.3,0.8-0.7,1.5-1.2,2.1c-0.5,0.6-1,1-1.7,1.3c-0.6,0.3-1.3,0.4-2,0.4c-0.5,0-1.1-0.1-1.6-0.3c-0.5-0.2-1-0.6-1.5-1L90.3,139.6z
		 M90.3,135.5c0.4,0.4,0.9,0.6,1.3,0.8c0.4,0.1,0.8,0.2,1.2,0.2c0.8,0,1.5-0.4,2.1-1.1c0.5-0.7,0.8-1.8,0.8-3.2
		c0-1.2-0.2-2.2-0.6-2.9s-1.1-1-2-1c-0.9,0-1.8,0.5-2.7,1.4V135.5z"/>
	<path class="st2" d="M100.7,141.3c0.2,0,0.3,0.1,0.5,0.1c0.6,0,1.2-0.2,1.6-0.6c0.4-0.4,0.7-0.9,0.9-1.5l0.2-0.8L99,126.4h2.9
		l2.1,6c0.2,0.5,0.4,1.1,0.5,1.7c0.2,0.6,0.4,1.2,0.5,1.8h0.1c0.1-0.6,0.3-1.1,0.5-1.7c0.2-0.6,0.3-1.2,0.5-1.7l1.8-6h2.8l-4.5,12.8
		c-0.2,0.7-0.5,1.3-0.8,1.9c-0.3,0.6-0.6,1-1,1.4c-0.4,0.4-0.8,0.7-1.4,0.9c-0.5,0.2-1.1,0.3-1.8,0.3c-0.3,0-0.6,0-0.9-0.1
		c-0.2,0-0.5-0.1-0.7-0.2l0.5-2.2C100.4,141.2,100.6,141.3,100.7,141.3z"/>
	<path class="st2" d="M121.7,139.6v3.9h-2.9v-17.1h2.4l0.2,1.3h0.1c0.5-0.4,1.1-0.8,1.7-1.1c0.6-0.3,1.3-0.5,2-0.5
		c0.8,0,1.4,0.1,2,0.4c0.6,0.3,1.1,0.7,1.5,1.3c0.4,0.5,0.7,1.2,1,2c0.2,0.8,0.3,1.6,0.3,2.6c0,1.1-0.1,2-0.4,2.8
		c-0.3,0.8-0.7,1.5-1.2,2.1c-0.5,0.6-1,1-1.7,1.3c-0.6,0.3-1.3,0.4-2,0.4c-0.5,0-1.1-0.1-1.6-0.3c-0.5-0.2-1-0.6-1.5-1L121.7,139.6z
		 M121.7,135.5c0.4,0.4,0.9,0.6,1.3,0.8c0.4,0.1,0.8,0.2,1.2,0.2c0.8,0,1.5-0.4,2.1-1.1c0.5-0.7,0.8-1.8,0.8-3.2
		c0-1.2-0.2-2.2-0.6-2.9s-1.1-1-2-1c-0.9,0-1.8,0.5-2.7,1.4V135.5z"/>
	<path class="st2" d="M131.3,132.5c0-1,0.2-1.9,0.5-2.7c0.3-0.8,0.7-1.5,1.3-2c0.5-0.5,1.2-1,1.9-1.3c0.7-0.3,1.4-0.4,2.2-0.4
		c0.8,0,1.5,0.1,2.2,0.4c0.7,0.3,1.3,0.7,1.9,1.3s1,1.2,1.3,2c0.3,0.8,0.5,1.7,0.5,2.7s-0.2,1.9-0.5,2.7c-0.3,0.8-0.8,1.5-1.3,2
		s-1.2,1-1.9,1.2c-0.7,0.3-1.4,0.4-2.2,0.4c-0.8,0-1.5-0.1-2.2-0.4c-0.7-0.3-1.3-0.7-1.9-1.2c-0.5-0.5-1-1.2-1.3-2
		C131.5,134.4,131.3,133.5,131.3,132.5z M134.3,132.5c0,1.2,0.3,2.2,0.8,3c0.5,0.7,1.2,1.1,2.1,1.1s1.6-0.4,2.1-1.1
		c0.5-0.7,0.8-1.7,0.8-3c0-1.2-0.3-2.2-0.8-3c-0.5-0.7-1.2-1.1-2.1-1.1s-1.6,0.4-2.1,1.1S134.3,131.3,134.3,132.5z"/>
	<path class="st2" d="M145.1,135.4c0.5,0.4,1.1,0.8,1.6,1s1.1,0.4,1.8,0.4c0.7,0,1.2-0.1,1.5-0.4c0.3-0.3,0.5-0.6,0.5-1.1
		c0-0.2-0.1-0.5-0.2-0.7c-0.2-0.2-0.4-0.4-0.6-0.5s-0.5-0.3-0.9-0.4c-0.3-0.1-0.6-0.3-1-0.4c-0.4-0.1-0.8-0.3-1.2-0.5
		c-0.4-0.2-0.8-0.4-1.1-0.7c-0.3-0.3-0.6-0.6-0.8-1c-0.2-0.4-0.3-0.8-0.3-1.3c0-1.1,0.4-2,1.2-2.6c0.8-0.7,1.9-1,3.3-1
		c0.8,0,1.6,0.2,2.3,0.5c0.7,0.3,1.3,0.6,1.8,1l-1.3,1.8c-0.4-0.3-0.9-0.6-1.3-0.8c-0.4-0.2-0.9-0.3-1.4-0.3c-0.6,0-1.1,0.1-1.4,0.4
		c-0.3,0.3-0.4,0.6-0.4,1c0,0.2,0.1,0.5,0.2,0.6c0.1,0.2,0.3,0.3,0.6,0.5c0.2,0.1,0.5,0.3,0.8,0.4c0.3,0.1,0.6,0.2,1,0.4
		c0.4,0.1,0.8,0.3,1.2,0.5c0.4,0.2,0.8,0.4,1.1,0.7c0.3,0.3,0.6,0.6,0.8,1c0.2,0.4,0.3,0.9,0.3,1.5c0,0.5-0.1,1-0.3,1.5
		c-0.2,0.5-0.5,0.9-0.9,1.2c-0.4,0.3-0.9,0.6-1.5,0.8c-0.6,0.2-1.3,0.3-2,0.3c-0.9,0-1.7-0.2-2.5-0.5c-0.8-0.3-1.5-0.7-2.1-1.2
		L145.1,135.4z"/>
	<path class="st2" d="M155.4,128.6h-1.8v-2.1l1.9-0.1l0.4-3.4h2.4v3.4h3.1v2.3h-3.1v5.9c0,1.4,0.6,2.1,1.7,2.1c0.2,0,0.4,0,0.7-0.1
		c0.2,0,0.4-0.1,0.6-0.2l0.5,2.1c-0.3,0.1-0.7,0.2-1.1,0.3c-0.4,0.1-0.9,0.1-1.4,0.1c-0.7,0-1.3-0.1-1.8-0.3s-0.9-0.5-1.2-0.9
		c-0.3-0.4-0.5-0.9-0.7-1.4s-0.2-1.1-0.2-1.8V128.6z"/>
	<path class="st2" d="M163.3,135.4c0.5,0.4,1.1,0.8,1.6,1s1.1,0.4,1.8,0.4c0.7,0,1.2-0.1,1.5-0.4c0.3-0.3,0.5-0.6,0.5-1.1
		c0-0.2-0.1-0.5-0.2-0.7c-0.2-0.2-0.4-0.4-0.6-0.5s-0.5-0.3-0.9-0.4c-0.3-0.1-0.6-0.3-1-0.4c-0.4-0.1-0.8-0.3-1.2-0.5
		c-0.4-0.2-0.8-0.4-1.1-0.7c-0.3-0.3-0.6-0.6-0.8-1c-0.2-0.4-0.3-0.8-0.3-1.3c0-1.1,0.4-2,1.2-2.6c0.8-0.7,1.9-1,3.3-1
		c0.8,0,1.6,0.2,2.3,0.5c0.7,0.3,1.3,0.6,1.8,1l-1.3,1.8c-0.4-0.3-0.9-0.6-1.3-0.8c-0.4-0.2-0.9-0.3-1.4-0.3c-0.6,0-1.1,0.1-1.4,0.4
		c-0.3,0.3-0.4,0.6-0.4,1c0,0.2,0.1,0.5,0.2,0.6c0.1,0.2,0.3,0.3,0.6,0.5c0.2,0.1,0.5,0.3,0.8,0.4c0.3,0.1,0.6,0.2,1,0.4
		c0.4,0.1,0.8,0.3,1.2,0.5c0.4,0.2,0.8,0.4,1.1,0.7c0.3,0.3,0.6,0.6,0.8,1c0.2,0.4,0.3,0.9,0.3,1.5c0,0.5-0.1,1-0.3,1.5
		c-0.2,0.5-0.5,0.9-0.9,1.2c-0.4,0.3-0.9,0.6-1.5,0.8c-0.6,0.2-1.3,0.3-2,0.3c-0.9,0-1.7-0.2-2.5-0.5c-0.8-0.3-1.5-0.7-2.1-1.2
		L163.3,135.4z"/>
	<path class="st2" d="M172.6,141.6c0.8-0.3,1.4-0.7,1.9-1.3c0.4-0.5,0.7-1.1,0.7-1.7h-0.2c-0.5,0-0.9-0.2-1.3-0.5
		c-0.4-0.3-0.6-0.7-0.6-1.3c0-0.5,0.2-1,0.6-1.3c0.4-0.3,0.8-0.5,1.4-0.5c0.7,0,1.2,0.3,1.6,0.8c0.4,0.5,0.6,1.2,0.6,2.2
		c0,1.2-0.3,2.3-1,3.2c-0.7,0.9-1.6,1.6-2.9,2L172.6,141.6z"/>
	<path class="st2" d="M188.8,139.6v3.9h-2.9v-17.1h2.4l0.2,1.3h0.1c0.5-0.4,1.1-0.8,1.7-1.1c0.6-0.3,1.3-0.5,2-0.5
		c0.8,0,1.4,0.1,2,0.4c0.6,0.3,1.1,0.7,1.5,1.3c0.4,0.5,0.7,1.2,1,2c0.2,0.8,0.3,1.6,0.3,2.6c0,1.1-0.1,2-0.4,2.8
		c-0.3,0.8-0.7,1.5-1.2,2.1c-0.5,0.6-1,1-1.7,1.3c-0.6,0.3-1.3,0.4-2,0.4c-0.5,0-1.1-0.1-1.6-0.3c-0.5-0.2-1-0.6-1.5-1L188.8,139.6z
		 M188.8,135.5c0.4,0.4,0.9,0.6,1.3,0.8c0.4,0.1,0.8,0.2,1.2,0.2c0.8,0,1.5-0.4,2.1-1.1c0.5-0.7,0.8-1.8,0.8-3.2
		c0-1.2-0.2-2.2-0.6-2.9s-1.1-1-2-1c-0.9,0-1.8,0.5-2.7,1.4V135.5z"/>
	<path class="st2" d="M198.4,135.4c0-1.3,0.6-2.3,1.7-3.1c1.1-0.7,3-1.2,5.5-1.5c0-0.3,0-0.6-0.1-0.9c-0.1-0.3-0.2-0.5-0.4-0.8
		c-0.2-0.2-0.4-0.4-0.7-0.5s-0.6-0.2-1-0.2c-0.6,0-1.2,0.1-1.8,0.4c-0.6,0.2-1.1,0.5-1.7,0.9l-1.1-1.9c0.7-0.4,1.4-0.8,2.3-1.1
		c0.8-0.3,1.8-0.5,2.7-0.5c1.5,0,2.7,0.5,3.4,1.4c0.8,0.9,1.1,2.2,1.1,3.9v7.3h-2.4l-0.2-1.4h-0.1c-0.5,0.5-1.1,0.9-1.8,1.2
		s-1.3,0.5-2,0.5c-1.1,0-2-0.3-2.6-1C198.8,137.3,198.4,136.4,198.4,135.4z M201.2,135.1c0,0.5,0.2,0.9,0.5,1.2
		c0.3,0.2,0.7,0.4,1.3,0.4c0.5,0,1-0.1,1.4-0.3c0.4-0.2,0.9-0.6,1.3-1v-2.8c-0.8,0.1-1.5,0.2-2.1,0.4s-1,0.4-1.4,0.6
		c-0.3,0.2-0.6,0.4-0.7,0.7C201.3,134.5,201.2,134.8,201.2,135.1z"/>
	<path class="st2" d="M210.4,140.9c0-0.5,0.1-1,0.5-1.4c0.3-0.4,0.7-0.8,1.3-1.2v-0.1c-0.3-0.2-0.6-0.5-0.8-0.8s-0.3-0.8-0.3-1.2
		c0-0.5,0.1-0.9,0.4-1.3s0.6-0.7,0.9-1v-0.1c-0.4-0.3-0.8-0.8-1.1-1.3c-0.3-0.6-0.5-1.2-0.5-1.9c0-0.7,0.1-1.3,0.4-1.9
		c0.3-0.6,0.6-1,1.1-1.4s1-0.7,1.5-0.9c0.6-0.2,1.2-0.3,1.9-0.3c0.3,0,0.7,0,1,0.1c0.3,0.1,0.6,0.1,0.8,0.2h4.4v2.1h-2.2
		c0.2,0.2,0.4,0.5,0.5,0.9c0.1,0.4,0.2,0.8,0.2,1.2c0,0.7-0.1,1.3-0.4,1.8c-0.2,0.5-0.6,0.9-1,1.3s-0.9,0.6-1.5,0.8
		c-0.6,0.2-1.2,0.3-1.8,0.3c-0.3,0-0.5,0-0.8-0.1c-0.3,0-0.6-0.1-0.8-0.2c-0.2,0.2-0.3,0.3-0.4,0.5c-0.1,0.2-0.2,0.4-0.2,0.7
		c0,0.3,0.1,0.6,0.4,0.8c0.3,0.2,0.8,0.3,1.6,0.3h2.2c1.5,0,2.6,0.2,3.4,0.7c0.8,0.5,1.1,1.2,1.1,2.3c0,0.6-0.2,1.2-0.5,1.7
		c-0.3,0.5-0.7,1-1.3,1.4c-0.6,0.4-1.3,0.7-2.1,0.9c-0.8,0.2-1.7,0.3-2.7,0.3c-0.7,0-1.4-0.1-2-0.2s-1.2-0.3-1.6-0.6
		c-0.5-0.3-0.8-0.6-1.1-1C210.6,141.9,210.4,141.4,210.4,140.9z M212.8,140.4c0,0.6,0.3,1,0.8,1.3c0.6,0.3,1.3,0.5,2.3,0.5
		c1,0,1.8-0.2,2.4-0.6c0.6-0.4,0.9-0.9,0.9-1.4c0-0.5-0.2-0.8-0.6-1c-0.4-0.2-0.9-0.2-1.6-0.2h-1.7c-0.7,0-1.2-0.1-1.7-0.2
		C213.2,139.3,212.8,139.9,212.8,140.4z M215.7,132.9c0.6,0,1.1-0.2,1.5-0.6c0.4-0.4,0.6-1,0.6-1.8c0-0.8-0.2-1.4-0.6-1.8
		c-0.4-0.4-0.9-0.6-1.5-0.6s-1.1,0.2-1.5,0.6c-0.4,0.4-0.6,1-0.6,1.8c0,0.8,0.2,1.4,0.6,1.8C214.6,132.7,215.1,132.9,215.7,132.9z"
		/>
	<path class="st2" d="M222.3,132.5c0-1,0.2-1.9,0.5-2.7c0.3-0.8,0.7-1.5,1.3-2c0.5-0.5,1.1-1,1.8-1.3c0.7-0.3,1.4-0.5,2.1-0.5
		c0.8,0,1.6,0.1,2.2,0.4c0.6,0.3,1.2,0.7,1.6,1.2c0.4,0.5,0.7,1.1,1,1.9c0.2,0.7,0.3,1.5,0.3,2.4c0,0.6,0,1-0.1,1.4h-7.8
		c0.1,1.1,0.5,2,1.2,2.6c0.6,0.6,1.5,0.9,2.5,0.9c0.5,0,1-0.1,1.5-0.2c0.5-0.2,0.9-0.4,1.4-0.7l1,1.8c-0.6,0.4-1.2,0.7-1.9,0.9
		c-0.7,0.2-1.5,0.4-2.2,0.4c-0.9,0-1.6-0.1-2.4-0.4c-0.7-0.3-1.4-0.7-1.9-1.3c-0.5-0.6-1-1.2-1.3-2
		C222.4,134.4,222.3,133.5,222.3,132.5z M230.5,131.4c0-1-0.2-1.8-0.6-2.3c-0.4-0.6-1-0.8-1.9-0.8c-0.7,0-1.4,0.3-1.9,0.8
		c-0.6,0.5-0.9,1.3-1,2.3H230.5z"/>
	<path class="st2" d="M235.1,135.4c0.5,0.4,1.1,0.8,1.6,1s1.1,0.4,1.8,0.4c0.7,0,1.2-0.1,1.5-0.4c0.3-0.3,0.5-0.6,0.5-1.1
		c0-0.2-0.1-0.5-0.2-0.7c-0.2-0.2-0.4-0.4-0.6-0.5s-0.5-0.3-0.9-0.4c-0.3-0.1-0.6-0.3-1-0.4c-0.4-0.1-0.8-0.3-1.2-0.5
		c-0.4-0.2-0.8-0.4-1.1-0.7c-0.3-0.3-0.6-0.6-0.8-1c-0.2-0.4-0.3-0.8-0.3-1.3c0-1.1,0.4-2,1.2-2.6c0.8-0.7,1.9-1,3.3-1
		c0.8,0,1.6,0.2,2.3,0.5c0.7,0.3,1.3,0.6,1.8,1l-1.3,1.8c-0.4-0.3-0.9-0.6-1.3-0.8c-0.4-0.2-0.9-0.3-1.4-0.3c-0.6,0-1.1,0.1-1.4,0.4
		c-0.3,0.3-0.4,0.6-0.4,1c0,0.2,0.1,0.5,0.2,0.6c0.1,0.2,0.3,0.3,0.6,0.5c0.2,0.1,0.5,0.3,0.8,0.4c0.3,0.1,0.6,0.2,1,0.4
		c0.4,0.1,0.8,0.3,1.2,0.5c0.4,0.2,0.8,0.4,1.1,0.7c0.3,0.3,0.6,0.6,0.8,1c0.2,0.4,0.3,0.9,0.3,1.5c0,0.5-0.1,1-0.3,1.5
		c-0.2,0.5-0.5,0.9-0.9,1.2c-0.4,0.3-0.9,0.6-1.5,0.8c-0.6,0.2-1.3,0.3-2,0.3c-0.9,0-1.7-0.2-2.5-0.5c-0.8-0.3-1.5-0.7-2.1-1.2
		L235.1,135.4z"/>
	<path class="st2" d="M244.3,141.6c0.8-0.3,1.4-0.7,1.9-1.3c0.4-0.5,0.7-1.1,0.7-1.7h-0.2c-0.5,0-0.9-0.2-1.3-0.5
		c-0.4-0.3-0.6-0.7-0.6-1.3c0-0.5,0.2-1,0.6-1.3c0.4-0.3,0.8-0.5,1.4-0.5c0.7,0,1.2,0.3,1.6,0.8c0.4,0.5,0.6,1.2,0.6,2.2
		c0,1.2-0.3,2.3-1,3.2c-0.7,0.9-1.6,1.6-2.9,2L244.3,141.6z"/>
	<path class="st2" d="M257.2,135.4c0-1.3,0.6-2.3,1.7-3.1c1.1-0.7,3-1.2,5.5-1.5c0-0.3,0-0.6-0.1-0.9c-0.1-0.3-0.2-0.5-0.4-0.8
		c-0.2-0.2-0.4-0.4-0.7-0.5s-0.6-0.2-1-0.2c-0.6,0-1.2,0.1-1.8,0.4c-0.6,0.2-1.1,0.5-1.7,0.9l-1.1-1.9c0.7-0.4,1.4-0.8,2.3-1.1
		c0.8-0.3,1.8-0.5,2.7-0.5c1.5,0,2.7,0.5,3.4,1.4c0.8,0.9,1.1,2.2,1.1,3.9v7.3h-2.4l-0.2-1.4h-0.1c-0.5,0.5-1.1,0.9-1.8,1.2
		s-1.3,0.5-2,0.5c-1.1,0-2-0.3-2.6-1C257.5,137.3,257.2,136.4,257.2,135.4z M260,135.1c0,0.5,0.2,0.9,0.5,1.2
		c0.3,0.2,0.7,0.4,1.3,0.4c0.5,0,1-0.1,1.4-0.3c0.4-0.2,0.9-0.6,1.3-1v-2.8c-0.8,0.1-1.5,0.2-2.1,0.4s-1,0.4-1.4,0.6
		c-0.3,0.2-0.6,0.4-0.7,0.7C260.1,134.5,260,134.8,260,135.1z"/>
	<path class="st2" d="M270,126.4h2.4l0.2,1.6h0.1c0.5-0.5,1.1-1,1.8-1.4c0.6-0.4,1.4-0.6,2.2-0.6c1.3,0,2.3,0.4,2.9,1.3
		c0.6,0.8,0.9,2,0.9,3.6v7.7h-2.9v-7.3c0-1-0.1-1.7-0.4-2.1c-0.3-0.4-0.8-0.6-1.5-0.6c-0.5,0-1,0.1-1.4,0.4
		c-0.4,0.3-0.9,0.6-1.4,1.1v8.6H270V126.4z"/>
	<path class="st2" d="M282.5,132.5c0-1,0.1-1.9,0.4-2.7c0.3-0.8,0.7-1.5,1.2-2c0.5-0.5,1-1,1.7-1.3s1.3-0.5,1.9-0.5
		c0.7,0,1.3,0.1,1.8,0.4s1,0.6,1.5,1l-0.1-2V121h2.9v17.6h-2.4l-0.2-1.3H291c-0.5,0.5-1,0.8-1.6,1.2s-1.2,0.5-1.9,0.5
		c-1.5,0-2.8-0.6-3.7-1.7C282.9,136.1,282.5,134.6,282.5,132.5z M285.5,132.5c0,1.3,0.2,2.3,0.7,3c0.5,0.7,1.2,1,2.1,1
		c0.9,0,1.8-0.5,2.6-1.4v-5.7c-0.4-0.4-0.9-0.7-1.3-0.8c-0.4-0.1-0.8-0.2-1.2-0.2c-0.8,0-1.5,0.4-2,1.1
		C285.7,130.2,285.5,131.2,285.5,132.5z"/>
	<path class="st2" d="M302.4,132.5c0-1,0.2-1.9,0.5-2.7c0.3-0.8,0.8-1.5,1.4-2c0.6-0.5,1.2-1,2-1.3c0.7-0.3,1.5-0.4,2.3-0.4
		c0.8,0,1.5,0.1,2.1,0.4c0.6,0.3,1.1,0.6,1.5,1l-1.4,1.8c-0.3-0.3-0.7-0.5-1-0.7s-0.7-0.2-1.1-0.2c-1,0-1.8,0.4-2.4,1.1
		s-0.9,1.7-0.9,3c0,1.2,0.3,2.2,0.9,3c0.6,0.7,1.4,1.1,2.4,1.1c0.5,0,1-0.1,1.4-0.3c0.4-0.2,0.8-0.5,1.1-0.7l1.2,1.8
		c-0.6,0.5-1.2,0.9-1.9,1.2c-0.7,0.3-1.4,0.4-2.1,0.4c-0.8,0-1.6-0.1-2.3-0.4c-0.7-0.3-1.4-0.7-1.9-1.2c-0.5-0.5-1-1.2-1.2-2
		C302.5,134.4,302.4,133.5,302.4,132.5z"/>
	<path class="st2" d="M313.8,126.4h2.9v7.3c0,1,0.1,1.7,0.4,2.2c0.3,0.4,0.8,0.6,1.5,0.6c0.5,0,1-0.1,1.4-0.4
		c0.4-0.3,0.8-0.7,1.3-1.3v-8.4h2.9v12.3h-2.4l-0.2-1.8h-0.1c-0.5,0.6-1.1,1.1-1.7,1.5s-1.4,0.6-2.2,0.6c-1.3,0-2.3-0.4-2.9-1.3
		c-0.6-0.8-0.9-2-0.9-3.6V126.4z"/>
	<path class="st2" d="M327.2,135.4c0.5,0.4,1.1,0.8,1.6,1s1.1,0.4,1.8,0.4c0.7,0,1.2-0.1,1.5-0.4c0.3-0.3,0.5-0.6,0.5-1.1
		c0-0.2-0.1-0.5-0.2-0.7c-0.2-0.2-0.4-0.4-0.6-0.5s-0.5-0.3-0.9-0.4c-0.3-0.1-0.6-0.3-1-0.4c-0.4-0.1-0.8-0.3-1.2-0.5
		c-0.4-0.2-0.8-0.4-1.1-0.7c-0.3-0.3-0.6-0.6-0.8-1c-0.2-0.4-0.3-0.8-0.3-1.3c0-1.1,0.4-2,1.2-2.6c0.8-0.7,1.9-1,3.3-1
		c0.8,0,1.6,0.2,2.3,0.5c0.7,0.3,1.3,0.6,1.8,1l-1.3,1.8c-0.4-0.3-0.9-0.6-1.3-0.8c-0.4-0.2-0.9-0.3-1.4-0.3c-0.6,0-1.1,0.1-1.4,0.4
		c-0.3,0.3-0.4,0.6-0.4,1c0,0.2,0.1,0.5,0.2,0.6c0.1,0.2,0.3,0.3,0.6,0.5c0.2,0.1,0.5,0.3,0.8,0.4c0.3,0.1,0.6,0.2,1,0.4
		c0.4,0.1,0.8,0.3,1.2,0.5c0.4,0.2,0.8,0.4,1.1,0.7c0.3,0.3,0.6,0.6,0.8,1c0.2,0.4,0.3,0.9,0.3,1.5c0,0.5-0.1,1-0.3,1.5
		c-0.2,0.5-0.5,0.9-0.9,1.2c-0.4,0.3-0.9,0.6-1.5,0.8c-0.6,0.2-1.3,0.3-2,0.3c-0.9,0-1.7-0.2-2.5-0.5c-0.8-0.3-1.5-0.7-2.1-1.2
		L327.2,135.4z"/>
	<path class="st2" d="M337.5,128.6h-1.8v-2.1l1.9-0.1l0.4-3.4h2.4v3.4h3.1v2.3h-3.1v5.9c0,1.4,0.6,2.1,1.7,2.1c0.2,0,0.4,0,0.7-0.1
		c0.2,0,0.4-0.1,0.6-0.2l0.5,2.1c-0.3,0.1-0.7,0.2-1.1,0.3c-0.4,0.1-0.9,0.1-1.4,0.1c-0.7,0-1.3-0.1-1.8-0.3s-0.9-0.5-1.2-0.9
		c-0.3-0.4-0.5-0.9-0.7-1.4s-0.2-1.1-0.2-1.8V128.6z"/>
	<path class="st2" d="M344.3,132.5c0-1,0.2-1.9,0.5-2.7c0.3-0.8,0.7-1.5,1.3-2c0.5-0.5,1.2-1,1.9-1.3c0.7-0.3,1.4-0.4,2.2-0.4
		c0.8,0,1.5,0.1,2.2,0.4c0.7,0.3,1.3,0.7,1.9,1.3s1,1.2,1.3,2c0.3,0.8,0.5,1.7,0.5,2.7s-0.2,1.9-0.5,2.7c-0.3,0.8-0.8,1.5-1.3,2
		s-1.2,1-1.9,1.2c-0.7,0.3-1.4,0.4-2.2,0.4c-0.8,0-1.5-0.1-2.2-0.4c-0.7-0.3-1.3-0.7-1.9-1.2c-0.5-0.5-1-1.2-1.3-2
		C344.4,134.4,344.3,133.5,344.3,132.5z M347.2,132.5c0,1.2,0.3,2.2,0.8,3c0.5,0.7,1.2,1.1,2.1,1.1s1.6-0.4,2.1-1.1
		c0.5-0.7,0.8-1.7,0.8-3c0-1.2-0.3-2.2-0.8-3c-0.5-0.7-1.2-1.1-2.1-1.1s-1.6,0.4-2.1,1.1S347.2,131.3,347.2,132.5z"/>
	<path class="st2" d="M358,126.4h2.4l0.2,1.7h0.1c0.5-0.5,1.1-1,1.7-1.4c0.6-0.4,1.3-0.6,2.1-0.6c0.9,0,1.6,0.2,2.2,0.6
		c0.5,0.4,1,0.9,1.2,1.6c0.6-0.6,1.2-1.2,1.8-1.6c0.6-0.4,1.3-0.6,2.1-0.6c1.3,0,2.3,0.4,2.9,1.3c0.6,0.8,0.9,2,0.9,3.6v7.7h-2.9
		v-7.3c0-1-0.2-1.7-0.5-2.1c-0.3-0.4-0.8-0.6-1.4-0.6c-0.8,0-1.6,0.5-2.6,1.5v8.6h-2.9v-7.3c0-1-0.2-1.7-0.5-2.1
		c-0.3-0.4-0.8-0.6-1.4-0.6c-0.8,0-1.6,0.5-2.6,1.5v8.6H358V126.4z"/>
	<path class="st2" d="M387.8,139.6v3.9H385v-17.1h2.4l0.2,1.3h0.1c0.5-0.4,1.1-0.8,1.7-1.1c0.6-0.3,1.3-0.5,2-0.5
		c0.8,0,1.4,0.1,2,0.4c0.6,0.3,1.1,0.7,1.5,1.3c0.4,0.5,0.7,1.2,1,2c0.2,0.8,0.3,1.6,0.3,2.6c0,1.1-0.1,2-0.4,2.8
		c-0.3,0.8-0.7,1.5-1.2,2.1c-0.5,0.6-1,1-1.7,1.3c-0.6,0.3-1.3,0.4-2,0.4c-0.5,0-1.1-0.1-1.6-0.3c-0.5-0.2-1-0.6-1.5-1L387.8,139.6z
		 M387.8,135.5c0.5,0.4,0.9,0.6,1.3,0.8c0.4,0.1,0.8,0.2,1.2,0.2c0.8,0,1.5-0.4,2-1.1c0.6-0.7,0.8-1.8,0.8-3.2
		c0-1.2-0.2-2.2-0.6-2.9s-1.1-1-2-1c-0.9,0-1.8,0.5-2.7,1.4V135.5z"/>
	<path class="st2" d="M397.5,132.5c0-1,0.2-1.9,0.5-2.7c0.3-0.8,0.7-1.5,1.3-2c0.5-0.5,1.2-1,1.9-1.3c0.7-0.3,1.4-0.4,2.2-0.4
		s1.5,0.1,2.2,0.4c0.7,0.3,1.3,0.7,1.9,1.3s1,1.2,1.3,2c0.3,0.8,0.5,1.7,0.5,2.7s-0.2,1.9-0.5,2.7c-0.3,0.8-0.8,1.5-1.3,2
		s-1.2,1-1.9,1.2c-0.7,0.3-1.4,0.4-2.2,0.4s-1.5-0.1-2.2-0.4c-0.7-0.3-1.3-0.7-1.9-1.2c-0.5-0.5-1-1.2-1.3-2
		C397.6,134.4,397.5,133.5,397.5,132.5z M400.4,132.5c0,1.2,0.3,2.2,0.8,3c0.5,0.7,1.2,1.1,2.1,1.1c0.9,0,1.6-0.4,2.1-1.1
		c0.5-0.7,0.8-1.7,0.8-3c0-1.2-0.3-2.2-0.8-3s-1.2-1.1-2.1-1.1c-0.9,0-1.6,0.4-2.1,1.1S400.4,131.3,400.4,132.5z"/>
	<path class="st2" d="M411.3,135.4c0.5,0.4,1.1,0.8,1.6,1c0.5,0.2,1.1,0.4,1.8,0.4c0.7,0,1.2-0.1,1.5-0.4c0.3-0.3,0.5-0.6,0.5-1.1
		c0-0.2-0.1-0.5-0.2-0.7c-0.2-0.2-0.4-0.4-0.6-0.5s-0.5-0.3-0.8-0.4s-0.6-0.3-1-0.4c-0.4-0.1-0.8-0.3-1.2-0.5
		c-0.4-0.2-0.8-0.4-1.1-0.7c-0.3-0.3-0.6-0.6-0.8-1c-0.2-0.4-0.3-0.8-0.3-1.3c0-1.1,0.4-2,1.2-2.6s1.9-1,3.3-1
		c0.8,0,1.6,0.2,2.3,0.5s1.3,0.6,1.8,1l-1.3,1.8c-0.4-0.3-0.9-0.6-1.3-0.8c-0.4-0.2-0.9-0.3-1.4-0.3c-0.6,0-1.1,0.1-1.4,0.4
		c-0.3,0.3-0.4,0.6-0.4,1c0,0.2,0.1,0.5,0.2,0.6c0.1,0.2,0.3,0.3,0.6,0.5c0.2,0.1,0.5,0.3,0.8,0.4c0.3,0.1,0.6,0.2,1,0.4
		c0.4,0.1,0.8,0.3,1.2,0.5c0.4,0.2,0.8,0.4,1.1,0.7c0.3,0.3,0.6,0.6,0.8,1c0.2,0.4,0.3,0.9,0.3,1.5c0,0.5-0.1,1-0.3,1.5
		c-0.2,0.5-0.5,0.9-0.9,1.2c-0.4,0.3-0.9,0.6-1.5,0.8c-0.6,0.2-1.3,0.3-2,0.3c-0.8,0-1.7-0.2-2.5-0.5s-1.5-0.7-2.1-1.2L411.3,135.4z
		"/>
	<path class="st2" d="M421.6,128.6h-1.8v-2.1l1.9-0.1l0.3-3.4h2.4v3.4h3.1v2.3h-3.1v5.9c0,1.4,0.6,2.1,1.7,2.1c0.2,0,0.4,0,0.7-0.1
		c0.2,0,0.4-0.1,0.6-0.2l0.5,2.1c-0.3,0.1-0.7,0.2-1.1,0.3c-0.4,0.1-0.9,0.1-1.4,0.1c-0.7,0-1.3-0.1-1.8-0.3
		c-0.5-0.2-0.9-0.5-1.2-0.9c-0.3-0.4-0.5-0.9-0.7-1.4c-0.1-0.5-0.2-1.1-0.2-1.8V128.6z"/>
	<path class="st2" d="M436.4,128.6h-1.8v-2.1l1.9-0.1l0.3-3.4h2.4v3.4h3.1v2.3h-3.1v5.9c0,1.4,0.6,2.1,1.7,2.1c0.2,0,0.4,0,0.7-0.1
		c0.2,0,0.4-0.1,0.6-0.2l0.5,2.1c-0.3,0.1-0.7,0.2-1.1,0.3c-0.4,0.1-0.9,0.1-1.4,0.1c-0.7,0-1.3-0.1-1.8-0.3
		c-0.5-0.2-0.9-0.5-1.2-0.9c-0.3-0.4-0.5-0.9-0.7-1.4c-0.1-0.5-0.2-1.1-0.2-1.8V128.6z"/>
	<path class="st2" d="M444.4,141.3c0.2,0,0.3,0.1,0.5,0.1c0.6,0,1.2-0.2,1.6-0.6c0.4-0.4,0.7-0.9,0.9-1.5l0.2-0.8l-4.8-12.1h2.9
		l2.1,6c0.2,0.5,0.4,1.1,0.5,1.7c0.2,0.6,0.4,1.2,0.5,1.8h0.1c0.1-0.6,0.3-1.1,0.5-1.7c0.2-0.6,0.3-1.2,0.5-1.7l1.8-6h2.8l-4.5,12.8
		c-0.2,0.7-0.5,1.3-0.8,1.9c-0.3,0.6-0.6,1-1,1.4c-0.4,0.4-0.8,0.7-1.4,0.9c-0.5,0.2-1.1,0.3-1.8,0.3c-0.3,0-0.6,0-0.9-0.1
		c-0.2,0-0.5-0.1-0.7-0.2l0.5-2.2C444.1,141.2,444.3,141.3,444.4,141.3z"/>
	<path class="st2" d="M458.7,139.6v3.9h-2.9v-17.1h2.4l0.2,1.3h0.1c0.5-0.4,1.1-0.8,1.7-1.1c0.6-0.3,1.3-0.5,2-0.5
		c0.8,0,1.4,0.1,2,0.4c0.6,0.3,1.1,0.7,1.5,1.3c0.4,0.5,0.7,1.2,1,2c0.2,0.8,0.3,1.6,0.3,2.6c0,1.1-0.1,2-0.4,2.8
		c-0.3,0.8-0.7,1.5-1.2,2.1c-0.5,0.6-1,1-1.7,1.3c-0.6,0.3-1.3,0.4-2,0.4c-0.5,0-1.1-0.1-1.6-0.3c-0.5-0.2-1-0.6-1.5-1L458.7,139.6z
		 M458.7,135.5c0.5,0.4,0.9,0.6,1.3,0.8c0.4,0.1,0.8,0.2,1.2,0.2c0.8,0,1.5-0.4,2-1.1c0.6-0.7,0.8-1.8,0.8-3.2
		c0-1.2-0.2-2.2-0.6-2.9s-1.1-1-2-1c-0.9,0-1.8,0.5-2.7,1.4V135.5z"/>
	<path class="st2" d="M468.4,132.5c0-1,0.2-1.9,0.5-2.7c0.3-0.8,0.7-1.5,1.3-2c0.5-0.5,1.1-1,1.8-1.3c0.7-0.3,1.4-0.5,2.1-0.5
		c0.8,0,1.6,0.1,2.2,0.4c0.6,0.3,1.2,0.7,1.6,1.2c0.4,0.5,0.7,1.1,1,1.9c0.2,0.7,0.3,1.5,0.3,2.4c0,0.6,0,1-0.1,1.4h-7.8
		c0.1,1.1,0.5,2,1.2,2.6c0.6,0.6,1.5,0.9,2.5,0.9c0.5,0,1-0.1,1.5-0.2c0.5-0.2,0.9-0.4,1.4-0.7l1,1.8c-0.6,0.4-1.2,0.7-2,0.9
		c-0.7,0.2-1.5,0.4-2.2,0.4c-0.9,0-1.6-0.1-2.4-0.4c-0.7-0.3-1.4-0.7-1.9-1.3c-0.6-0.6-1-1.2-1.3-2
		C468.5,134.4,468.4,133.5,468.4,132.5z M476.6,131.4c0-1-0.2-1.8-0.6-2.3c-0.4-0.6-1-0.8-1.9-0.8c-0.7,0-1.4,0.3-1.9,0.8
		s-0.9,1.3-1,2.3H476.6z"/>
	<path class="st2" d="M481.2,135.4c0.5,0.4,1.1,0.8,1.6,1c0.5,0.2,1.1,0.4,1.8,0.4c0.7,0,1.2-0.1,1.5-0.4c0.3-0.3,0.5-0.6,0.5-1.1
		c0-0.2-0.1-0.5-0.2-0.7c-0.2-0.2-0.4-0.4-0.6-0.5s-0.5-0.3-0.8-0.4s-0.6-0.3-1-0.4c-0.4-0.1-0.8-0.3-1.2-0.5
		c-0.4-0.2-0.8-0.4-1.1-0.7c-0.3-0.3-0.6-0.6-0.8-1c-0.2-0.4-0.3-0.8-0.3-1.3c0-1.1,0.4-2,1.2-2.6s1.9-1,3.3-1
		c0.8,0,1.6,0.2,2.3,0.5s1.3,0.6,1.8,1l-1.3,1.8c-0.4-0.3-0.9-0.6-1.3-0.8c-0.4-0.2-0.9-0.3-1.4-0.3c-0.6,0-1.1,0.1-1.4,0.4
		c-0.3,0.3-0.4,0.6-0.4,1c0,0.2,0.1,0.5,0.2,0.6c0.1,0.2,0.3,0.3,0.6,0.5c0.2,0.1,0.5,0.3,0.8,0.4c0.3,0.1,0.6,0.2,1,0.4
		c0.4,0.1,0.8,0.3,1.2,0.5c0.4,0.2,0.8,0.4,1.1,0.7c0.3,0.3,0.6,0.6,0.8,1c0.2,0.4,0.3,0.9,0.3,1.5c0,0.5-0.1,1-0.3,1.5
		c-0.2,0.5-0.5,0.9-0.9,1.2c-0.4,0.3-0.9,0.6-1.5,0.8c-0.6,0.2-1.3,0.3-2,0.3c-0.8,0-1.7-0.2-2.5-0.5s-1.5-0.7-2.1-1.2L481.2,135.4z
		"/>
	<path class="st2" d="M496.5,126.4h2.9l1.5,6.4c0.1,0.6,0.2,1.2,0.3,1.8s0.2,1.2,0.3,1.8h0.1c0.1-0.6,0.2-1.2,0.4-1.8
		s0.3-1.2,0.4-1.8l1.6-6.4h2.6l1.6,6.4c0.2,0.6,0.3,1.2,0.4,1.8c0.1,0.6,0.3,1.2,0.4,1.8h0.1c0.1-0.6,0.2-1.2,0.3-1.8
		c0.1-0.6,0.2-1.2,0.3-1.8l1.5-6.4h2.7l-3.1,12.3h-3.4l-1.4-5.7c-0.1-0.6-0.3-1.2-0.4-1.7c-0.1-0.6-0.2-1.2-0.4-1.8h-0.1
		c-0.1,0.6-0.2,1.3-0.4,1.8c-0.1,0.6-0.2,1.2-0.4,1.8l-1.4,5.7h-3.3L496.5,126.4z"/>
	<path class="st2" d="M517.1,124.2c-0.5,0-0.9-0.2-1.3-0.5c-0.3-0.3-0.5-0.7-0.5-1.2s0.2-0.9,0.5-1.2c0.3-0.3,0.8-0.5,1.3-0.5
		c0.5,0,0.9,0.2,1.3,0.5s0.5,0.7,0.5,1.2s-0.2,0.9-0.5,1.2S517.6,124.2,517.1,124.2z M515.6,126.4h2.9v12.3h-2.9V126.4z"/>
	<path class="st2" d="M521.8,128.6h-1.8v-2.1l1.9-0.1l0.3-3.4h2.4v3.4h3.1v2.3h-3.1v5.9c0,1.4,0.6,2.1,1.7,2.1c0.2,0,0.4,0,0.7-0.1
		c0.2,0,0.4-0.1,0.6-0.2l0.5,2.1c-0.3,0.1-0.7,0.2-1.1,0.3c-0.4,0.1-0.9,0.1-1.4,0.1c-0.7,0-1.3-0.1-1.8-0.3
		c-0.5-0.2-0.9-0.5-1.2-0.9c-0.3-0.4-0.5-0.9-0.7-1.4c-0.1-0.5-0.2-1.1-0.2-1.8V128.6z"/>
	<path class="st2" d="M529.7,121h2.9v4.5l-0.1,2.4c0.5-0.5,1.1-0.9,1.7-1.3s1.4-0.6,2.2-0.6c1.3,0,2.3,0.4,2.9,1.3
		c0.6,0.8,0.9,2,0.9,3.6v7.7h-2.9v-7.3c0-1-0.1-1.7-0.5-2.1c-0.3-0.4-0.8-0.6-1.5-0.6c-0.5,0-1,0.1-1.4,0.4
		c-0.4,0.3-0.9,0.6-1.4,1.1v8.6h-2.9V121z"/>
	<path class="st2" d="M548.9,135.4c0-1.3,0.6-2.3,1.7-3.1c1.1-0.7,3-1.2,5.5-1.5c0-0.3,0-0.6-0.1-0.9c-0.1-0.3-0.2-0.5-0.4-0.8
		s-0.4-0.4-0.7-0.5c-0.3-0.1-0.6-0.2-1-0.2c-0.6,0-1.2,0.1-1.8,0.4s-1.1,0.5-1.7,0.9l-1-1.9c0.7-0.4,1.4-0.8,2.3-1.1
		c0.8-0.3,1.8-0.5,2.7-0.5c1.5,0,2.7,0.5,3.5,1.4c0.8,0.9,1.1,2.2,1.1,3.9v7.3h-2.4l-0.2-1.4h-0.1c-0.5,0.5-1.1,0.9-1.8,1.2
		s-1.3,0.5-2,0.5c-1.1,0-2-0.3-2.6-1C549.3,137.3,548.9,136.4,548.9,135.4z M551.7,135.1c0,0.5,0.2,0.9,0.5,1.2
		c0.3,0.2,0.7,0.4,1.3,0.4c0.5,0,1-0.1,1.4-0.3c0.4-0.2,0.9-0.6,1.3-1v-2.8c-0.8,0.1-1.5,0.2-2.1,0.4s-1,0.4-1.4,0.6
		s-0.6,0.4-0.7,0.7C551.8,134.5,551.7,134.8,551.7,135.1z"/>
	<path class="st2" d="M568.5,135.4c0.5,0.4,1.1,0.8,1.6,1c0.5,0.2,1.1,0.4,1.8,0.4c0.7,0,1.2-0.1,1.5-0.4c0.3-0.3,0.5-0.6,0.5-1.1
		c0-0.2-0.1-0.5-0.2-0.7c-0.2-0.2-0.4-0.4-0.6-0.5s-0.5-0.3-0.8-0.4s-0.6-0.3-1-0.4c-0.4-0.1-0.8-0.3-1.2-0.5
		c-0.4-0.2-0.8-0.4-1.1-0.7c-0.3-0.3-0.6-0.6-0.8-1c-0.2-0.4-0.3-0.8-0.3-1.3c0-1.1,0.4-2,1.2-2.6s1.9-1,3.3-1
		c0.8,0,1.6,0.2,2.3,0.5s1.3,0.6,1.8,1l-1.3,1.8c-0.4-0.3-0.9-0.6-1.3-0.8c-0.4-0.2-0.9-0.3-1.4-0.3c-0.6,0-1.1,0.1-1.4,0.4
		c-0.3,0.3-0.4,0.6-0.4,1c0,0.2,0.1,0.5,0.2,0.6c0.1,0.2,0.3,0.3,0.6,0.5c0.2,0.1,0.5,0.3,0.8,0.4c0.3,0.1,0.6,0.2,1,0.4
		c0.4,0.1,0.8,0.3,1.2,0.5c0.4,0.2,0.8,0.4,1.1,0.7c0.3,0.3,0.6,0.6,0.8,1c0.2,0.4,0.3,0.9,0.3,1.5c0,0.5-0.1,1-0.3,1.5
		c-0.2,0.5-0.5,0.9-0.9,1.2c-0.4,0.3-0.9,0.6-1.5,0.8c-0.6,0.2-1.3,0.3-2,0.3c-0.8,0-1.7-0.2-2.5-0.5s-1.5-0.7-2.1-1.2L568.5,135.4z
		"/>
	<path class="st2" d="M579.8,124.2c-0.5,0-0.9-0.2-1.3-0.5c-0.3-0.3-0.5-0.7-0.5-1.2s0.2-0.9,0.5-1.2c0.3-0.3,0.8-0.5,1.3-0.5
		c0.5,0,0.9,0.2,1.3,0.5s0.5,0.7,0.5,1.2s-0.2,0.9-0.5,1.2S580.3,124.2,579.8,124.2z M578.4,126.4h2.9v12.3h-2.9V126.4z"/>
	<path class="st2" d="M584.2,126.4h2.4l0.2,1.6h0.1c0.5-0.5,1.1-1,1.8-1.4c0.6-0.4,1.4-0.6,2.2-0.6c1.3,0,2.3,0.4,2.9,1.3
		c0.6,0.8,0.9,2,0.9,3.6v7.7h-2.9v-7.3c0-1-0.1-1.7-0.5-2.1c-0.3-0.4-0.8-0.6-1.5-0.6c-0.5,0-1,0.1-1.4,0.4
		c-0.4,0.3-0.9,0.6-1.4,1.1v8.6h-2.9V126.4z"/>
	<path class="st2" d="M596.6,140.9c0-0.5,0.2-1,0.5-1.4c0.3-0.4,0.7-0.8,1.3-1.2v-0.1c-0.3-0.2-0.6-0.5-0.8-0.8
		c-0.2-0.3-0.3-0.8-0.3-1.2c0-0.5,0.1-0.9,0.4-1.3s0.6-0.7,0.9-1v-0.1c-0.4-0.3-0.8-0.8-1.1-1.3s-0.5-1.2-0.5-1.9
		c0-0.7,0.1-1.3,0.4-1.9c0.3-0.6,0.6-1,1.1-1.4s1-0.7,1.5-0.9c0.6-0.2,1.2-0.3,1.8-0.3c0.3,0,0.7,0,1,0.1c0.3,0.1,0.6,0.1,0.8,0.2
		h4.4v2.1h-2.2c0.2,0.2,0.4,0.5,0.5,0.9c0.1,0.4,0.2,0.8,0.2,1.2c0,0.7-0.1,1.3-0.4,1.8c-0.2,0.5-0.6,0.9-1,1.3s-0.9,0.6-1.5,0.8
		c-0.6,0.2-1.2,0.3-1.8,0.3c-0.3,0-0.5,0-0.8-0.1c-0.3,0-0.6-0.1-0.8-0.2c-0.2,0.2-0.3,0.3-0.4,0.5c-0.1,0.2-0.2,0.4-0.2,0.7
		c0,0.3,0.1,0.6,0.4,0.8c0.3,0.2,0.8,0.3,1.6,0.3h2.2c1.5,0,2.6,0.2,3.4,0.7c0.8,0.5,1.1,1.2,1.1,2.3c0,0.6-0.2,1.2-0.5,1.7
		s-0.7,1-1.3,1.4c-0.6,0.4-1.3,0.7-2.1,0.9c-0.8,0.2-1.7,0.3-2.7,0.3c-0.7,0-1.4-0.1-2-0.2s-1.2-0.3-1.6-0.6c-0.5-0.3-0.8-0.6-1.1-1
		C596.7,141.9,596.6,141.4,596.6,140.9z M599,140.4c0,0.6,0.3,1,0.8,1.3c0.6,0.3,1.3,0.5,2.3,0.5c1,0,1.8-0.2,2.4-0.6
		c0.6-0.4,0.9-0.9,0.9-1.4c0-0.5-0.2-0.8-0.6-1c-0.4-0.2-0.9-0.2-1.6-0.2h-1.7c-0.7,0-1.2-0.1-1.7-0.2
		C599.3,139.3,599,139.9,599,140.4z M601.8,132.9c0.6,0,1.1-0.2,1.5-0.6c0.4-0.4,0.6-1,0.6-1.8c0-0.8-0.2-1.4-0.6-1.8
		c-0.4-0.4-0.9-0.6-1.5-0.6s-1.1,0.2-1.5,0.6c-0.4,0.4-0.6,1-0.6,1.8c0,0.8,0.2,1.4,0.6,1.8C600.7,132.7,601.2,132.9,601.8,132.9z"
		/>
	<path class="st2" d="M609.6,121h2.9v14.6c0,0.4,0.1,0.6,0.2,0.7c0.1,0.1,0.3,0.2,0.4,0.2c0.1,0,0.1,0,0.2,0c0.1,0,0.1,0,0.3-0.1
		l0.4,2.1c-0.4,0.2-0.9,0.2-1.5,0.2c-1,0-1.8-0.3-2.2-0.9c-0.4-0.6-0.6-1.5-0.6-2.5V121z"/>
	<path class="st2" d="M614.8,132.5c0-1,0.2-1.9,0.5-2.7c0.3-0.8,0.7-1.5,1.3-2c0.5-0.5,1.1-1,1.8-1.3c0.7-0.3,1.4-0.5,2.1-0.5
		c0.8,0,1.6,0.1,2.2,0.4c0.6,0.3,1.2,0.7,1.6,1.2c0.4,0.5,0.7,1.1,1,1.9c0.2,0.7,0.3,1.5,0.3,2.4c0,0.6,0,1-0.1,1.4h-7.8
		c0.1,1.1,0.5,2,1.2,2.6c0.6,0.6,1.5,0.9,2.5,0.9c0.5,0,1-0.1,1.5-0.2c0.5-0.2,0.9-0.4,1.4-0.7l1,1.8c-0.6,0.4-1.2,0.7-2,0.9
		c-0.7,0.2-1.5,0.4-2.2,0.4c-0.9,0-1.6-0.1-2.4-0.4c-0.7-0.3-1.4-0.7-1.9-1.3c-0.6-0.6-1-1.2-1.3-2
		C615,134.4,614.8,133.5,614.8,132.5z M623,131.4c0-1-0.2-1.8-0.6-2.3c-0.4-0.6-1-0.8-1.9-0.8c-0.7,0-1.4,0.3-1.9,0.8
		s-0.9,1.3-1,2.3H623z"/>
	<path class="st2" d="M633.3,132.5c0-1,0.2-1.9,0.5-2.7c0.3-0.8,0.8-1.5,1.3-2s1.2-1,2-1.3c0.7-0.3,1.5-0.4,2.3-0.4
		c0.8,0,1.5,0.1,2.1,0.4c0.6,0.3,1.1,0.6,1.5,1l-1.4,1.8c-0.3-0.3-0.7-0.5-1-0.7c-0.3-0.2-0.7-0.2-1.1-0.2c-1,0-1.8,0.4-2.4,1.1
		c-0.6,0.7-0.9,1.7-0.9,3c0,1.2,0.3,2.2,0.9,3c0.6,0.7,1.4,1.1,2.4,1.1c0.5,0,1-0.1,1.4-0.3s0.8-0.5,1.1-0.7l1.2,1.8
		c-0.6,0.5-1.2,0.9-1.9,1.2c-0.7,0.3-1.4,0.4-2.1,0.4c-0.8,0-1.6-0.1-2.3-0.4c-0.7-0.3-1.4-0.7-1.9-1.2s-0.9-1.2-1.2-2
		C633.5,134.4,633.3,133.5,633.3,132.5z"/>
	<path class="st2" d="M644.9,121h2.9v14.6c0,0.4,0.1,0.6,0.2,0.7c0.1,0.1,0.3,0.2,0.4,0.2c0.1,0,0.1,0,0.2,0c0.1,0,0.1,0,0.3-0.1
		l0.4,2.1c-0.4,0.2-0.9,0.2-1.5,0.2c-1,0-1.8-0.3-2.2-0.9c-0.4-0.6-0.6-1.5-0.6-2.5V121z"/>
	<path class="st2" d="M652.4,124.2c-0.5,0-0.9-0.2-1.3-0.5c-0.3-0.3-0.5-0.7-0.5-1.2s0.2-0.9,0.5-1.2c0.3-0.3,0.8-0.5,1.3-0.5
		c0.5,0,0.9,0.2,1.3,0.5s0.5,0.7,0.5,1.2s-0.2,0.9-0.5,1.2S652.9,124.2,652.4,124.2z M650.9,126.4h2.9v12.3h-2.9V126.4z"/>
	<path class="st2" d="M655.9,132.5c0-1,0.2-1.9,0.5-2.7c0.3-0.8,0.8-1.5,1.3-2s1.2-1,2-1.3c0.7-0.3,1.5-0.4,2.3-0.4
		c0.8,0,1.5,0.1,2.1,0.4c0.6,0.3,1.1,0.6,1.5,1l-1.4,1.8c-0.3-0.3-0.7-0.5-1-0.7c-0.3-0.2-0.7-0.2-1.1-0.2c-1,0-1.8,0.4-2.4,1.1
		c-0.6,0.7-0.9,1.7-0.9,3c0,1.2,0.3,2.2,0.9,3c0.6,0.7,1.4,1.1,2.4,1.1c0.5,0,1-0.1,1.4-0.3s0.8-0.5,1.1-0.7l1.2,1.8
		c-0.6,0.5-1.2,0.9-1.9,1.2c-0.7,0.3-1.4,0.4-2.1,0.4c-0.8,0-1.6-0.1-2.3-0.4c-0.7-0.3-1.4-0.7-1.9-1.2s-0.9-1.2-1.2-2
		C656,134.4,655.9,133.5,655.9,132.5z"/>
	<path class="st2" d="M667.5,121h2.8v11h0.1l4.6-5.6h3.1l-4.2,5l4.6,7.3h-3.1l-3.1-5.3l-1.9,2.2v3.1h-2.8V121z"/>
	<path class="st2" d="M679.7,137c0-0.6,0.2-1,0.5-1.4s0.8-0.6,1.3-0.6c0.5,0,1,0.2,1.3,0.6c0.3,0.4,0.5,0.8,0.5,1.4
		c0,0.6-0.2,1-0.5,1.4c-0.4,0.4-0.8,0.5-1.3,0.5c-0.5,0-1-0.2-1.3-0.5S679.7,137.6,679.7,137z"/>
</g>
</svg>
